<svg xmlns="http://www.w3.org/2000/svg" style="display:none">
 <symbol id="feed" viewBox="0 0 16 16"><path d="M3 3h10v2H3zM2 5h12v5H2zM4 10h8v3H4zM5 1h2v2H5zm4 0h2v2H9z"/></symbol>
 <symbol id="games" viewBox="0 0 16 16"><path d="M4 4h8v2h2v6h-3v-2H5v2H2V6h2zM5 6h2v2h2V6h2v2H9v2H7V8H5z"/></symbol>
 <symbol id="clean" viewBox="0 0 16 16"><path d="M8 1h2v7h4v2h-2v4H3v-4h5zM5 10v2h2v-2zm4 0v2h1v-2z"/></symbol>
 <symbol id="status" viewBox="0 0 16 16"><path d="M3 2h10v12H3zM5 4h6v2H5zm0 4h2v4H5zm4-1h2v5H9z"/></symbol>
 <symbol id="bag" viewBox="0 0 16 16"><path d="M5 2h6v3h3v9H2V5h3zm2 2h2V3H7zM4 7v5h8V7z"/></symbol>
 <symbol id="social" viewBox="0 0 16 16"><path d="M3 2h4v2h2V2h4v6h-2v2H9v2H7v-2H5V8H3z"/></symbol>
 <symbol id="shop" viewBox="0 0 16 16"><path d="M2 3h12v3h-1v8H3V6H2zm3 4v5h2V7zm4 0v5h2V7z"/></symbol>
 <symbol id="settings" viewBox="0 0 16 16"><path d="M6 1h4v2h2v2h2v4h-2v2h-2v2H6v-2H4V9H2V5h2V3h2zm1 5v3h3V6z"/></symbol>
 <symbol id="sync" viewBox="0 0 16 16"><path d="M3 3h7V1l4 3-4 3V5H5v3H3zm10 10H6v2l-4-3 4-3v2h5V8h2z"/></symbol>
 <symbol id="offline" viewBox="0 0 16 16"><path d="M1 3l2-2 12 12-2 2-3-3H4v-2H2V7h2zm5 1h4v2h2v2h2v2h-2zM7 12h2v2H7z"/></symbol>
 <symbol id="warning" viewBox="0 0 16 16"><path d="M7 1h2v2h2v3h2v3h2v5H1V9h2V6h2V3h2zm0 5v4h2V6zm0 6v1h2v-1z"/></symbol>
 <symbol id="coin" viewBox="0 0 16 16"><path d="M5 1h6v2h2v2h2v6h-2v2h-2v2H5v-2H3v-2H1V5h2V3h2zm1 3v8h4V9H8V7h2V4z"/></symbol>
 <symbol id="heart" viewBox="0 0 16 16"><path d="M2 3h4v2h4V3h4v7h-2v2h-2v2H6v-2H4v-2H2z"/></symbol>
 <symbol id="health" viewBox="0 0 16 16"><path d="M6 1h4v4h4v4h-4v4H6V9H2V5h4z"/></symbol>
 <symbol id="sleep" viewBox="0 0 16 16"><path d="M3 2h9v3H8l4 4v4H3v-3h5L4 6 3 5z"/></symbol>
 <symbol id="gift" viewBox="0 0 16 16"><path d="M2 5h12v3h-1v7H3V8H2zm5-3h2v3H7zM4 1h3v2H4zm5 0h3v2H9zM7 8v6h2V8z"/></symbol>
 <symbol id="evolution" viewBox="0 0 16 16"><path d="M7 1h2v4h4v2H9v4H7V7H3V5h4zM2 10h3v3H2zm9 1h3v3h-3z"/></symbol>
 <symbol id="cloud" viewBox="0 0 16 16"><path d="M5 4h2V2h4v2h2v2h2v5H2V6h3z"/></symbol>
</svg>
